<svg width="17" height="17" viewBox="0 0 17 17" fill="none" xmlns="http://www.w3.org/2000/svg">
<path fill-rule="evenodd" clip-rule="evenodd" d="M0.355653 0.355653C0.829869 -0.118551 1.59871 -0.118551 2.07292 0.355653L8.50002 6.78277L14.9271 0.355653C15.4013 -0.118551 16.1702 -0.118551 16.6444 0.355653C17.1185 0.829869 17.1185 1.59871 16.6444 2.07292L10.2173 8.50002L16.6444 14.9271C17.1185 15.4013 17.1185 16.1702 16.6444 16.6444C16.1702 17.1185 15.4013 17.1185 14.9271 16.6444L8.50002 10.2173L2.07292 16.6444C1.59871 17.1185 0.829869 17.1185 0.355653 16.6444C-0.118551 16.1702 -0.118551 15.4013 0.355653 14.9271L6.78277 8.50002L0.355653 2.07292C-0.118551 1.59871 -0.118551 0.829869 0.355653 0.355653Z" fill="#C6C6C6"/>
</svg>
