<svg width="28" height="23" viewBox="0 0 28 23" fill="none" xmlns="http://www.w3.org/2000/svg">
<path d="M2.8 23C2.03 23 1.37107 22.7187 0.8232 22.1562C0.2744 21.5927 0 20.9156 0 20.125V2.875C0 2.08437 0.2744 1.40779 0.8232 0.84525C1.37107 0.28175 2.03 0 2.8 0H25.2C25.97 0 26.6294 0.28175 27.1782 0.84525C27.7261 1.40779 28 2.08437 28 2.875V20.125C28 20.9156 27.7261 21.5927 27.1782 22.1562C26.6294 22.7187 25.97 23 25.2 23H2.8ZM14 12.6859C14.1167 12.6859 14.2389 12.6677 14.3668 12.6313C14.4956 12.5959 14.6183 12.5422 14.735 12.4703L24.64 6.10938C24.8267 5.98958 24.9667 5.84008 25.06 5.66088C25.1533 5.48071 25.2 5.28281 25.2 5.06719C25.2 4.58802 25.0017 4.22865 24.605 3.98906C24.2083 3.74948 23.8 3.76146 23.38 4.025L14 10.0625L4.62 4.025C4.2 3.76146 3.79167 3.75523 3.395 4.00631C2.99833 4.25835 2.8 4.61198 2.8 5.06719C2.8 5.30677 2.84667 5.51617 2.94 5.69537C3.03333 5.87554 3.17333 6.01354 3.36 6.10938L13.265 12.4703C13.3817 12.5422 13.5044 12.5959 13.6332 12.6313C13.7611 12.6677 13.8833 12.6859 14 12.6859Z" fill="white"/>
</svg>
