<svg width="27" height="27" viewBox="0 0 27 27" fill="none" xmlns="http://www.w3.org/2000/svg">
<path d="M25.1891 6.89221C23.9819 4.77194 22.3444 3.09332 20.2761 1.85596C18.2076 0.61855 15.9494 0 13.4999 0C11.0507 0 8.79172 0.618739 6.72362 1.85596C4.65521 3.09325 3.01777 4.77194 1.81056 6.89221C0.603542 9.01242 0 11.3277 0 13.838C0 16.8534 0.858245 19.565 2.57517 21.9734C4.2919 24.3819 6.50967 26.0486 9.22829 26.9735C9.54475 27.0337 9.77901 26.9913 9.93133 26.8475C10.0837 26.7035 10.1598 26.5231 10.1598 26.3071C10.1598 26.2711 10.1568 25.9469 10.1509 25.3342C10.1449 24.7214 10.1421 24.1869 10.1421 23.7308L9.73776 23.8025C9.47998 23.8509 9.15478 23.8714 8.76217 23.8656C8.36974 23.86 7.96235 23.8178 7.54055 23.7394C7.11857 23.6617 6.72608 23.4815 6.36277 23.1992C5.99965 22.9169 5.74187 22.5474 5.58949 22.0913L5.41372 21.6766C5.29656 21.4006 5.1121 21.0939 4.86011 20.7578C4.60811 20.4214 4.35329 20.1933 4.0955 20.0732L3.97243 19.9829C3.89042 19.9228 3.81433 19.8505 3.74396 19.7665C3.67365 19.6825 3.62101 19.5984 3.58585 19.5142C3.55064 19.4299 3.57982 19.3608 3.67371 19.3066C3.7676 19.2524 3.93728 19.2261 4.18348 19.2261L4.53491 19.2799C4.76929 19.3281 5.05921 19.4719 5.40504 19.7123C5.75067 19.9525 6.03481 20.2648 6.25749 20.649C6.52716 21.1416 6.85205 21.517 7.23309 21.7753C7.61382 22.0337 7.99769 22.1626 8.38433 22.1626C8.77097 22.1626 9.10491 22.1325 9.38627 22.0728C9.66733 22.0127 9.93102 21.9224 10.1772 21.8023C10.2827 20.9972 10.5698 20.3786 11.0384 19.9463C10.3705 19.8743 9.77008 19.7659 9.23673 19.6219C8.70368 19.4776 8.15284 19.2435 7.58457 18.9188C7.016 18.5946 6.54434 18.192 6.16945 17.7118C5.79451 17.2312 5.4868 16.6004 5.24675 15.8198C5.00657 15.0388 4.88646 14.138 4.88646 13.117C4.88646 11.6632 5.34944 10.4261 6.27523 9.40497C5.84155 8.31202 5.88249 7.08678 6.39817 5.7294C6.73803 5.62116 7.24201 5.70238 7.90989 5.97256C8.5779 6.24287 9.06699 6.47442 9.37765 6.6664C9.68832 6.85832 9.93724 7.02096 10.1248 7.15286C11.2148 6.84065 12.3397 6.68451 13.4998 6.68451C14.6598 6.68451 15.7849 6.84065 16.875 7.15286L17.543 6.72061C17.9998 6.4322 18.5391 6.16789 19.1599 5.92763C19.781 5.68749 20.2559 5.62135 20.5842 5.72958C21.1113 7.08704 21.1583 8.31221 20.7245 9.40516C21.6502 10.4263 22.1134 11.6637 22.1134 13.1172C22.1134 14.1382 21.9928 15.0418 21.753 15.8288C21.5129 16.6158 21.2025 17.2461 20.8218 17.7208C20.4406 18.1954 19.966 18.5949 19.3977 18.919C18.8293 19.2434 18.2783 19.4775 17.7452 19.6218C17.2119 19.7661 16.6115 19.8745 15.9436 19.9466C16.5527 20.4869 16.8574 21.3399 16.8574 22.505V26.3066C16.8574 26.5226 16.9306 26.7029 17.0773 26.847C17.2238 26.9908 17.4551 27.0332 17.7715 26.9729C20.4905 26.0481 22.7083 24.3814 24.425 21.9729C26.1414 19.5645 27 16.8529 27 13.8375C26.9994 11.3275 26.3955 9.01242 25.1891 6.89221Z" fill="white"/>
</svg>
