<svg width="19" height="19" viewBox="0 0 19 19" fill="none" xmlns="http://www.w3.org/2000/svg">
<path fill-rule="evenodd" clip-rule="evenodd" d="M8.13064 0.0673686C5.98254 0.407779 4.19101 1.33766 2.67913 2.89685C0.828922 4.80499 0 6.85296 0 9.51572C0 11.0517 0.213988 12.1157 0.780605 13.3968C1.736 15.5567 3.80775 17.5294 6.01351 18.3798C7.31579 18.8818 8.03738 19.0079 9.5612 18.9996C10.8002 18.9929 11.1777 18.9463 12.0161 18.6962C15.3704 17.6959 17.6945 15.3745 18.696 12.024C18.9464 11.1866 18.993 10.8095 18.9998 9.57197C19.0105 7.61579 18.6711 6.33211 17.6957 4.6376C17.2074 3.78961 15.9648 2.4175 15.1321 1.80677C14.3264 1.21606 12.9335 0.559985 11.9263 0.296859C10.896 0.0276579 9.07567 -0.0823624 8.13064 0.0673686ZM8.42155 2.31603C5.74985 2.70695 3.41198 4.70082 2.56189 7.31329C2.31253 8.0795 2.26613 8.42497 2.26613 9.51572C2.26613 10.6065 2.31253 10.9519 2.56189 11.7182C3.28753 13.9481 5.06532 15.7255 7.29395 16.4489C8.06745 16.7 8.41085 16.7461 9.50489 16.7461C10.5969 16.7461 10.9428 16.6998 11.7099 16.4507C13.7815 15.7782 15.4951 14.1727 16.2675 12.1808C17.9427 7.86081 15.31 3.18168 10.7438 2.36283C9.82148 2.19746 9.30284 2.187 8.42155 2.31603ZM8.77226 5.39997C8.29023 5.88145 8.26613 6.59096 8.71651 7.04083C9.5139 7.83729 10.8583 7.06029 10.5825 5.96245C10.3811 5.16103 9.3364 4.83649 8.77226 5.39997ZM8.70784 8.38211L8.37864 8.71093V11.2001C8.37864 13.9065 8.43202 14.1874 8.99492 14.4436C9.36839 14.6135 9.64139 14.6135 10.0149 14.4436C10.5778 14.1874 10.6311 13.9065 10.6311 11.2001V8.71093L10.3019 8.38211C9.83837 7.91908 9.17141 7.91908 8.70784 8.38211Z" fill="#C6C6C6"/>
</svg>
