<svg width="28" height="27" viewBox="0 0 28 27" fill="none" xmlns="http://www.w3.org/2000/svg">
<path fill-rule="evenodd" clip-rule="evenodd" d="M8.8261 0.0299146C7.11253 0.101543 6.17455 0.244536 5.1309 0.593284C2.97549 1.31353 1.38722 2.84227 0.638937 4.91692C0.0883474 6.44339 -0.000328127 7.63685 9.09962e-07 13.5159C0.000220268 17.2091 0.0495759 19.1787 0.16441 20.0779C0.310557 21.2226 0.595175 22.1501 1.07453 23.0435C1.92536 24.6293 3.32794 25.7851 5.1309 26.3862C6.7105 26.9129 7.97538 27.0003 14.0099 27C17.736 26.9998 19.9023 26.9494 20.8536 26.8407C22.9455 26.6017 24.5368 25.888 25.7923 24.6259C27.0198 23.3918 27.6723 21.9454 27.9228 19.9029C28.0264 19.0576 28.0254 7.79272 27.9216 6.99705C27.7109 5.38152 27.2075 4.05225 26.4208 3.03399C26.0298 2.52794 25.1991 1.75935 24.6762 1.41968C23.49 0.649288 22.1188 0.240314 20.1793 0.0782652C19.3404 0.00816738 10.2701 -0.0304709 8.8261 0.0299146ZM8.33397 2.51068C5.40982 2.67326 3.72964 3.72034 2.99293 5.83922C2.60856 6.94474 2.55574 7.86546 2.55421 13.4895C2.55262 19.3522 2.60768 20.1762 3.08259 21.3932C3.35925 22.1021 3.58251 22.429 4.19676 23.0245C4.69186 23.5046 4.80795 23.5876 5.32246 23.8295C6.32087 24.2989 7.09679 24.4408 9.10173 24.5207C10.768 24.5872 17.3065 24.5872 18.9729 24.5207C20.4529 24.4618 20.937 24.409 21.6481 24.2294C22.6442 23.9778 23.3618 23.5753 24.0213 22.8984C24.9184 21.9776 25.2955 20.995 25.456 19.1603C25.505 18.6005 25.525 16.9576 25.5249 13.4895C25.5249 7.5326 25.4858 6.91296 25.032 5.69095C24.7662 4.97503 24.4606 4.50905 23.9138 3.98537C23.0671 3.17455 22.2011 2.80369 20.6304 2.57904C20.1277 2.50714 19.2454 2.49305 14.5583 2.48223C11.5421 2.47521 8.74116 2.48804 8.33397 2.51068ZM20.9856 4.75064C19.8154 5.15244 19.4766 6.57213 20.3503 7.41309C20.6932 7.74316 21.0072 7.86456 21.5229 7.86641C21.894 7.86773 22.0096 7.84529 22.2732 7.72072C22.8282 7.45838 23.1418 6.99773 23.1835 6.38364C23.2203 5.84059 23.0976 5.52188 22.7069 5.14621C22.4983 4.94568 22.314 4.82317 22.1301 4.763C21.8074 4.65737 21.2741 4.65162 20.9856 4.75064ZM12.7486 6.66229C12.1338 6.76881 11.2415 7.06567 10.6943 7.34569C9.37669 8.01996 8.23526 9.14274 7.56995 10.419C7.32684 10.8853 7.0391 11.7388 6.93512 12.3019C6.80949 12.9824 6.81853 14.1142 6.95503 14.7868C7.66438 18.2822 10.9746 20.7035 14.6268 20.3984C16.4205 20.2486 17.9532 19.5457 19.2088 18.297C20.0033 17.507 20.514 16.7026 20.8644 15.6891C21.1213 14.9464 21.2209 14.3316 21.2209 13.4895C21.2209 12.3158 21.0111 11.445 20.4768 10.4016C19.807 9.09338 18.5927 7.92088 17.2274 7.26393C16.7395 7.02914 15.8519 6.75255 15.2777 6.65638C14.6694 6.55445 13.3531 6.55751 12.7486 6.66229ZM13.093 9.07977C11.8166 9.34875 10.6461 10.1583 9.99868 11.2198C9.60866 11.8592 9.42215 12.4906 9.38947 13.2823C9.35766 14.0521 9.45007 14.6065 9.71056 15.2094C10.1795 16.2949 11.167 17.2323 12.3141 17.6809C13.2261 18.0377 14.5026 18.075 15.4631 17.773C16.1851 17.546 16.7614 17.2061 17.2994 16.6898C17.8266 16.1839 18.1437 15.7317 18.375 15.1557C19.4371 12.5119 17.7891 9.60972 14.9236 9.0776C14.4394 8.98766 13.5249 8.98876 13.093 9.07977Z" fill="white"/>
</svg>
