<svg width="25" height="32" viewBox="0 0 25 32" fill="none" xmlns="http://www.w3.org/2000/svg">
<path d="M14.4793 0.243515C16.1596 4.16823 8.45526 6.59196 7.73925 9.86135C7.0829 12.8657 12.317 16.3568 12.3218 16.3568C11.527 15.1136 10.9422 14.0896 10.1451 12.155C8.79656 8.88319 18.3578 5.92218 14.4793 0.243515ZM19.5965 5.67885C19.5965 5.67885 12.8373 6.11734 12.4936 10.4781C12.3408 12.42 14.2717 13.4415 14.3266 14.8534C14.3719 16.0074 13.181 16.9735 13.181 16.9735C13.181 16.9735 15.3481 16.5567 16.0259 14.7956C16.7778 12.8416 14.5605 11.5213 14.7848 9.95772C14.9997 8.46156 19.5965 5.67885 19.5965 5.67885ZM8.98034 15.7593C8.98034 15.7593 2.79396 15.6701 2.79396 17.4361C2.79396 19.2816 10.8921 19.419 16.6751 18.2842C16.6751 18.2842 18.2122 17.2169 18.6227 16.8193C14.8326 17.6 6.19265 17.6867 6.19265 17.0121C6.19265 16.3905 8.98034 15.7593 8.98034 15.7593ZM20.8758 15.7593C20.2695 15.8075 19.6156 16.0436 19.0237 16.4724C20.4175 16.1688 21.6013 17.041 21.6013 18.0336C21.6013 20.2694 18.3936 22.3703 18.3936 22.3703C18.3936 22.3703 23.358 21.8017 23.358 18.13C23.358 16.4628 22.2099 15.6533 20.8758 15.7593ZM7.49103 19.1901C6.54111 19.1901 5.1234 19.9418 5.1234 20.6549C5.1234 22.0884 12.2645 23.1919 17.5534 21.0982L15.7204 19.961C12.1356 21.1199 5.53392 20.7417 7.49103 19.1901ZM8.36934 22.4089C7.06858 22.4089 6.21174 23.2015 6.21174 23.7966C6.21174 25.6373 13.9805 25.8228 17.057 23.9508L15.1094 22.698C12.811 23.6786 7.04232 23.8279 8.36934 22.4089ZM4.03505 24.0665C1.91565 24.0231 0.540894 24.9844 0.540894 25.7819C0.540894 30.0222 22.2314 29.827 22.2314 25.4928C22.2314 24.7724 21.408 24.423 21.1049 24.2592C22.8782 28.4032 3.34768 28.0731 3.34768 25.6277C3.34768 25.0711 4.78449 24.5387 6.11628 24.7989L4.98974 24.1436C4.65799 24.093 4.33817 24.0737 4.03505 24.0665ZM24.5227 26.919C21.2242 30.0752 12.8659 31.2196 4.45512 29.2705C12.8635 32.7447 24.4821 30.7956 24.5227 26.919Z" fill="white"/>
</svg>
