<svg width="29" height="29" viewBox="0 0 29 29" fill="none" xmlns="http://www.w3.org/2000/svg">
<path d="M0.868225 0.76252V28.5549H28.6606V0.76252H0.868225ZM15.9928 22.4381C15.9928 25.1429 14.4046 26.3774 12.0907 26.3774C10 26.3774 8.7903 25.298 8.16994 23.989L10.2978 22.7049C10.7072 23.4307 11.0795 24.0449 11.979 24.0449C12.8351 24.0449 13.381 23.7099 13.381 22.4009V13.5235H15.9928V22.4381ZM22.1716 26.3774C19.746 26.3774 18.1764 25.2236 17.4134 23.7099L19.5413 22.4815C20.0996 23.3935 20.8316 24.0697 22.1158 24.0697C23.1952 24.0697 23.89 23.53 23.89 22.7793C23.89 21.886 23.1828 21.5696 21.9855 21.0423L21.3341 20.7631C19.4482 19.9629 18.2013 18.9517 18.2013 16.8238C18.2013 14.8634 19.6963 13.3746 22.0227 13.3746C23.6853 13.3746 24.8764 13.9515 25.7325 15.4652L23.6977 16.768C23.251 15.9677 22.7672 15.6513 22.0165 15.6513C21.2535 15.6513 20.7696 16.1352 20.7696 16.768C20.7696 17.5496 21.2535 17.866 22.3763 18.3561L23.0277 18.6353C25.2486 19.5844 26.4956 20.5584 26.4956 22.7421C26.4956 25.0871 24.6469 26.3774 22.1716 26.3774Z" fill="#FAF9F6" fill-opacity="0.9"/>
</svg>
