<svg width="31" height="31" viewBox="0 0 31 31" fill="none" xmlns="http://www.w3.org/2000/svg">
<path d="M15.8703 0.584877C7.55613 0.584877 0.796448 7.34456 0.796448 15.6587C0.796448 23.9729 7.55613 30.7326 15.8703 30.7326C24.1845 30.7326 30.9442 23.9729 30.9442 15.6587C30.9442 7.34456 24.1845 0.584877 15.8703 0.584877ZM23.5721 27.5294L12.196 10.43H10.5945V22.23H12.196V13.6096L22.6064 28.0947C20.6044 29.1781 18.3198 29.7905 15.8703 29.7905C8.05074 29.814 1.71501 23.4783 1.71501 15.6587C1.71501 7.83917 8.05074 1.50344 15.8703 1.50344C23.6899 1.50344 30.0256 7.83917 30.0256 15.6587C30.0256 20.6284 27.4583 25.0092 23.5721 27.5294Z" fill="#FAF9F6" fill-opacity="0.9"/>
<path d="M19.309 17.8492L21.0754 20.5106V10.43H19.309V17.8492Z" fill="#FAF9F6" fill-opacity="0.9"/>
</svg>
