<svg width="26" height="29" viewBox="0 0 26 29" fill="none" xmlns="http://www.w3.org/2000/svg">
<path d="M12.6412 28.4491C12.2703 28.4491 11.8939 28.3498 11.5674 28.1623L8.15225 26.1494C7.64303 25.8626 7.89211 25.7633 8.05816 25.7082C8.73897 25.471 8.87734 25.4214 9.60243 25.0078C9.67992 24.9637 9.77955 24.9802 9.85705 25.0299L12.4807 26.5795C12.5747 26.6347 12.7076 26.6347 12.7962 26.5795L23.0194 20.7006C23.1135 20.6455 23.1743 20.5352 23.1743 20.4249V8.6671C23.1743 8.55129 23.1135 8.4465 23.0138 8.38584L12.7962 2.51245C12.7021 2.4573 12.5747 2.4573 12.4807 2.51245L2.26851 8.39135C2.16888 8.4465 2.10799 8.5568 2.10799 8.67261V20.4249C2.10799 20.5352 2.16888 20.6455 2.26851 20.6951L5.06924 22.3055C6.59137 23.061 7.52126 22.1731 7.52126 21.2742V9.67081C7.52126 9.50537 7.6541 9.37852 7.82015 9.37852H9.11535C9.27587 9.37852 9.41424 9.50537 9.41424 9.67081V21.2797C9.41424 23.2982 8.30724 24.4563 6.38658 24.4563C5.79433 24.4563 5.32939 24.4563 4.03419 23.8166L1.35523 22.2779C0.691026 21.8974 0.281433 21.186 0.281433 20.4194V8.6671C0.281433 7.90604 0.691026 7.1891 1.35523 6.80857L11.5674 0.929673C12.215 0.565689 13.0729 0.565689 13.715 0.929673L23.9382 6.81409C24.6024 7.19462 25.012 7.90604 25.012 8.67261V20.4249C25.012 21.186 24.6024 21.8974 23.9382 22.2834L13.715 28.1623C13.3884 28.3498 13.0176 28.4491 12.6412 28.4491ZM20.8939 16.8623C20.8939 14.6618 19.3994 14.0772 16.2611 13.6636C13.084 13.2445 12.7629 13.0294 12.7629 12.2904C12.7629 11.6782 13.0342 10.862 15.3865 10.862C17.4843 10.862 18.2592 11.3143 18.5803 12.7261C18.6079 12.8584 18.7297 12.9577 18.8681 12.9577H20.1965C20.2795 12.9577 20.357 12.9246 20.4124 12.8639C20.4677 12.8033 20.4954 12.7206 20.4898 12.6378C20.2851 10.2058 18.6633 9.0752 15.3865 9.0752C12.4696 9.0752 10.7316 10.2995 10.7316 12.3566C10.7316 14.5846 12.464 15.2023 15.2592 15.478C18.6079 15.8034 18.8681 16.2942 18.8681 16.9505C18.8681 18.0866 17.9493 18.5719 15.7961 18.5719C13.0895 18.5719 12.4973 17.8936 12.298 16.5534C12.2759 16.41 12.1541 16.3053 12.0046 16.3053H10.6818C10.5157 16.3053 10.3884 16.4376 10.3884 16.5975C10.3884 18.3127 11.3238 20.3587 15.8017 20.3587C19.0341 20.3532 20.8939 19.0793 20.8939 16.8623Z" fill="#FAF9F6" fill-opacity="0.9"/>
</svg>
