<svg width="26" height="24" viewBox="0 0 26 24" fill="none" xmlns="http://www.w3.org/2000/svg">
<path d="M5.22889 10.3867C7.30889 14.16 10.66 17.2533 14.7478 19.1733L17.9256 16.24C18.33 15.8667 18.8933 15.76 19.3989 15.9067C21.0167 16.4 22.75 16.6667 24.5556 16.6667C24.9386 16.6667 25.306 16.8071 25.5769 17.0572C25.8478 17.3072 26 17.6464 26 18V22.6667C26 23.0203 25.8478 23.3594 25.5769 23.6095C25.306 23.8595 24.9386 24 24.5556 24C18.043 24 11.7972 21.6119 7.19216 17.3611C2.5871 13.1103 0 7.34491 0 1.33333C0 0.979711 0.152182 0.640573 0.423068 0.390524C0.693954 0.140476 1.06135 0 1.44444 0H6.5C6.88309 0 7.25049 0.140476 7.52138 0.390524C7.79226 0.640573 7.94444 0.979711 7.94444 1.33333C7.94444 3 8.23333 4.6 8.76778 6.09333C8.92667 6.56 8.81111 7.08 8.40667 7.45333L5.22889 10.3867Z" fill="white"/>
</svg>
