<svg width="30" height="27" viewBox="0 0 30 27" fill="none" xmlns="http://www.w3.org/2000/svg">
<path d="M24.1225 8.91833C23.8145 8.81519 23.5064 8.71777 23.1984 8.62609C23.2497 8.41407 23.2954 8.20206 23.341 7.99004C24.0426 4.57484 23.5806 1.83008 22.0233 0.924705C20.5231 0.0594456 18.076 0.959087 15.6004 3.1251C15.3551 3.33712 15.1155 3.5606 14.8874 3.78407C14.7333 3.63509 14.5736 3.4861 14.4139 3.34285C11.8185 1.02785 9.21737 0.0537155 7.66012 0.964817C6.16562 1.83581 5.72069 4.42013 6.34815 7.65196C6.4109 7.97285 6.47935 8.28801 6.55921 8.6089C6.19414 8.71204 5.83477 8.82665 5.49822 8.94698C2.45217 10.0071 0.267456 11.6803 0.267456 13.4108C0.267456 15.1986 2.59478 16.9922 5.76062 18.0809C6.01731 18.1669 6.274 18.2528 6.53639 18.3273C6.45083 18.6711 6.37667 19.0092 6.30822 19.3587C5.70928 22.539 6.17702 25.0603 7.67153 25.9256C9.21167 26.8195 11.8014 25.9026 14.3226 23.685C14.5223 23.5074 14.7219 23.324 14.9216 23.1292C15.1726 23.3756 15.435 23.6106 15.6974 23.8398C18.1388 25.9485 20.5517 26.8023 22.0405 25.937C23.5806 25.0431 24.0826 22.3327 23.4323 19.0321C23.3809 18.78 23.3239 18.5221 23.2612 18.2586C23.4437 18.207 23.6205 18.1497 23.7973 18.0924C27.0887 16.9979 29.473 15.2273 29.473 13.4108C29.473 11.6746 27.2256 9.98988 24.1225 8.91833ZM16.4047 4.05339C18.5267 2.19681 20.506 1.46907 21.4073 1.99052C22.3713 2.54635 22.7421 4.79259 22.1374 7.74364C22.0975 7.93847 22.0576 8.12756 22.0062 8.31666C20.7399 8.03015 19.4564 7.82386 18.1673 7.70926C17.4257 6.64344 16.6157 5.62347 15.7373 4.66652C15.9598 4.45451 16.1765 4.25395 16.4047 4.05339ZM9.80491 16.3848C10.0958 16.8833 10.3924 17.3818 10.7062 17.8689C9.81631 17.7715 8.93216 17.6282 8.05942 17.4391C8.3104 16.614 8.62413 15.7602 8.9892 14.8892C9.2516 15.3935 9.5197 15.892 9.80491 16.3848ZM8.07653 9.49135C8.89794 9.30798 9.77068 9.159 10.6777 9.04439C10.3753 9.52 10.0787 10.0071 9.7992 10.4999C9.5197 10.9869 9.24589 11.4855 8.9892 11.9897C8.62984 11.1359 8.32751 10.2993 8.07653 9.49135ZM9.63948 13.4395C10.016 12.6487 10.4267 11.8751 10.8602 11.113C11.2937 10.3509 11.7615 9.61168 12.252 8.88395C13.1076 8.82092 13.9804 8.78654 14.8703 8.78654C15.7601 8.78654 16.6386 8.82092 17.4885 8.88395C17.9733 9.60595 18.4354 10.3451 18.8746 11.1015C19.3138 11.8579 19.7245 12.6315 20.1124 13.4165C19.7302 14.2073 19.3195 14.9866 18.8803 15.7545C18.4468 16.5166 17.9848 17.2558 17.4999 17.9892C16.65 18.0523 15.7658 18.0809 14.8703 18.0809C13.9747 18.0809 13.1076 18.0523 12.2691 18.0007C11.7729 17.273 11.3051 16.528 10.8659 15.7659C10.4267 15.0038 10.0217 14.2302 9.63948 13.4395ZM19.9413 16.3733C20.2322 15.8691 20.506 15.3591 20.7741 14.8434C21.1392 15.6742 21.4586 16.5166 21.7381 17.3818C20.854 17.5824 19.9584 17.7371 19.0571 17.8402C19.3652 17.3589 19.6561 16.8661 19.9413 16.3733ZM20.7627 11.9897C20.4946 11.4855 20.2208 10.9812 19.9356 10.4884C19.6561 10.0013 19.3652 9.52 19.0628 9.04439C19.9812 9.159 20.8597 9.31371 21.6811 9.50281C21.4187 10.3509 21.1107 11.176 20.7627 11.9897ZM14.8817 5.54324C15.4806 6.19649 16.0453 6.88411 16.5701 7.59466C15.4407 7.54308 14.3055 7.54308 13.1761 7.59466C13.7351 6.85546 14.3112 6.16784 14.8817 5.54324ZM8.26477 2.03063C9.22308 1.46907 11.3507 2.2713 13.5925 4.26541C13.7351 4.39147 13.8777 4.529 14.026 4.66652C13.1419 5.62347 12.3262 6.64344 11.5789 7.70926C10.2898 7.82386 9.01202 8.02442 7.74568 8.3052C7.67153 8.01296 7.60878 7.71499 7.54604 7.41702C7.00984 4.6436 7.3635 2.55208 8.26477 2.03063ZM6.86723 17.1354C6.62766 17.0667 6.39378 16.9922 6.15991 16.912C4.94491 16.528 3.56449 15.9206 2.56626 15.1241C1.99013 14.723 1.60224 14.1042 1.49386 13.4108C1.49386 12.3622 3.2964 11.0213 5.89752 10.1102C6.22266 9.99561 6.5535 9.89246 6.88435 9.79505C7.27223 11.0385 7.73998 12.259 8.28188 13.4395C7.73428 14.6371 7.26083 15.8748 6.86723 17.1354ZM13.5184 22.751C12.5772 23.6163 11.4876 24.3039 10.3012 24.7738C9.668 25.0775 8.93787 25.1061 8.28759 24.8483C7.38061 24.3211 7.00414 22.2983 7.51752 19.5765C7.58026 19.2556 7.64871 18.9347 7.72857 18.6196C9.00632 18.8946 10.2955 19.0837 11.6017 19.1811C12.3547 20.2527 13.1818 21.2784 14.066 22.241C13.8834 22.4187 13.7009 22.5906 13.5184 22.751ZM14.9159 21.3586C14.3341 20.7283 13.7522 20.0292 13.1875 19.2785C13.7351 19.3014 14.2998 19.3129 14.8703 19.3129C15.4578 19.3129 16.0339 19.3014 16.6043 19.2728C16.0795 20.0005 15.5148 20.6939 14.9159 21.3586ZM22.3713 23.0776C22.32 23.7767 21.9777 24.43 21.4301 24.8712C20.5231 25.3984 18.5894 24.7108 16.5017 22.9115C16.2621 22.7052 16.0225 22.4817 15.7772 22.2525C16.65 21.2841 17.4543 20.2584 18.1844 19.1811C19.4907 19.0722 20.7912 18.8717 22.0747 18.5794C22.1317 18.8144 22.1831 19.0493 22.2287 19.2785C22.5082 20.5162 22.5538 21.8055 22.3713 23.0776ZM23.4095 16.9177C23.2497 16.9693 23.09 17.0208 22.9246 17.0667C22.5253 15.8175 22.0347 14.597 21.47 13.4108C22.0176 12.2418 22.4797 11.0385 22.8676 9.80651C23.1642 9.89246 23.4494 9.98415 23.7232 10.0758C26.3814 10.9927 28.2466 12.3564 28.2466 13.3993C28.2466 14.5225 26.2559 15.9722 23.4095 16.9177ZM14.8703 16.0582C16.3134 16.0582 17.4828 14.8835 17.4828 13.4337C17.4828 11.984 16.3134 10.8093 14.8703 10.8093C13.4271 10.8093 12.2577 11.984 12.2577 13.4337C12.2577 14.8835 13.4271 16.0582 14.8703 16.0582Z" fill="#FAF9F6" fill-opacity="0.9"/>
</svg>
