<svg width="34" height="35" viewBox="0 0 34 35" fill="none" xmlns="http://www.w3.org/2000/svg">
<path d="M12.2342 9.47698C9.45762 14.0909 2.47526 5.5136 1.05213 1.67803C-2.94897 16.9219 9.45762 22.4513 9.90852 23.7948C9.43407 28.4566 6.53999 31.7429 1.31572 34.3111C7.79986 36.3168 16.9198 33.8774 22.0333 26.1257C24.3854 22.5602 31.7271 29.5019 32.8402 33.9316C35.0883 26.303 32.6821 22.3312 30.5125 18.3996C28.0013 13.8489 23.8257 13.3327 24.142 10.5139C24.5803 6.60797 28.9586 2.61527 32.7875 1.4612C25.1328 -1.65422 15.4959 4.05681 12.2342 9.47698ZM13.8708 18.2975C13.8708 15.5599 16.7726 13.8397 19.0815 15.2084C21.3904 16.5772 21.3904 20.0177 19.0815 21.3865C16.7726 22.7552 13.8708 21.035 13.8708 18.2975Z" fill="url(#paint0_linear_33_278)"/>
<defs>
<linearGradient id="paint0_linear_33_278" x1="17.5073" y1="0.577911" x2="17.5073" y2="201.779" gradientUnits="userSpaceOnUse">
<stop stop-color="#00C950"/>
<stop offset="1" stop-color="#006327"/>
</linearGradient>
</defs>
</svg>
