<svg width="29" height="29" viewBox="0 0 29 29" fill="none" xmlns="http://www.w3.org/2000/svg">
<path d="M26.617 20.9297C26.5986 20.9549 26.58 20.98 26.5612 21.005L26.617 20.9297ZM26.617 20.9297C24.2991 25.244 19.7473 28.1846 14.5229 28.1846H14.5225C11.7624 28.1873 9.07786 27.3526 6.81556 25.8073M26.617 20.9297L6.81556 25.8073M6.81556 25.8073C6.96834 25.7272 7.10953 25.6238 7.23363 25.4994C7.55523 25.1772 7.73572 24.7403 7.73562 24.285C7.73553 23.8297 7.55486 23.3929 7.23313 23.0708C6.91138 22.7486 6.47488 22.5675 6.01958 22.5674C5.56428 22.5673 5.1277 22.7483 4.80582 23.0703C4.62249 23.2537 4.48492 23.4743 4.4004 23.7144C3.37743 22.5997 2.54416 21.3211 1.93668 19.9292C1.18045 18.1964 0.790499 16.3257 0.791383 14.4346V14.4344C0.791383 6.85279 6.95135 0.685631 14.5229 0.685631L14.5231 0.685631C16.3555 0.685093 18.1694 1.05308 19.8572 1.76779C21.545 2.4825 23.0722 3.52937 24.3484 4.84634L24.435 4.93571C22.7254 6.95254 20.0848 8.46312 17.7196 9.02625L17.7194 9.02628C16.4784 9.32209 15.3031 9.38231 14.1036 9.44378C13.9335 9.4525 13.7629 9.46125 13.5915 9.47069C12.2263 9.54593 10.8278 9.66619 9.38834 10.2199L9.38827 10.2199C6.10271 11.4842 4.46409 14.0955 4.11701 16.6236C3.7768 19.1018 4.67925 21.6312 6.64578 22.5974C6.71383 22.6348 6.78242 22.6712 6.85153 22.7067L6.95893 22.7617H7.07962C7.12255 22.7599 7.168 22.7538 7.17085 22.7533L7.17415 22.7527L7.17655 22.7522L7.18032 22.7515L7.19202 22.7492L7.23572 22.7404C7.27385 22.7327 7.32984 22.7214 7.40191 22.7066C7.54605 22.677 7.75461 22.6338 8.01339 22.5786C8.53082 22.4684 9.24965 22.3106 10.0559 22.1205C11.6618 21.742 13.6387 21.2296 15.0587 20.7045L15.0589 20.7044C17.2505 19.8933 19.5644 18.4565 21.4866 16.623C19.9846 18.4911 18.0862 20.0583 16.1776 21.0371L16.1772 21.0373C15.1888 21.5455 14.3086 21.8578 13.2435 22.1907C12.9607 22.2791 12.6638 22.3693 12.3485 22.465C11.4788 22.729 10.4685 23.0358 9.22375 23.4668L9.22323 23.467C9.00821 23.5417 8.81705 23.6148 8.67968 23.6691C8.61085 23.6963 8.55519 23.719 8.51638 23.735L8.47118 23.7537L8.45888 23.7589L8.45545 23.7604L8.45444 23.7608L8.45411 23.7609L8.45399 23.761L8.45394 23.761L8.64985 24.221L8.45389 23.761L8.73109 24.7144C9.14314 24.6465 9.55721 24.6005 9.87022 24.5714C10.0262 24.557 10.1559 24.5468 10.2462 24.5402C10.2913 24.537 10.3265 24.5346 10.3502 24.5331L10.3768 24.5315L10.3828 24.5311C11.4137 24.4827 12.5727 24.5191 13.8152 24.558C13.99 24.5635 14.1664 24.5691 14.3444 24.5744C15.7776 24.6176 17.2974 24.6485 18.7822 24.5371C21.7418 24.3152 24.6757 23.52 26.5612 21.0051L6.81556 25.8073Z" fill="#FAF9F6" stroke="#FAF9F6"/>
</svg>
